<svg fill="#fff" xmlns="http://www.w3.org/2000/svg" width="512" height="512" viewBox="0 0 512 512"><path fill-rule="evenodd" clip-rule="evenodd" d="M275.945 373.711c10.448 0 14.737-6.977 14.599-15.707-.533-32.912 12.26-50.619 35.345-27.531 25.555 25.553 30.838 43.238 61.851 43.238h54.937c43.218 0 4.705-43.371-25.742-71.629-28.948-26.87-30.307-27.504-5.379-59.847 30.951-40.14 71.393-91.858 35.608-91.858h-68.347c-13.261 0-14.217 7.748-18.928 18.87-17.07 40.279-49.538 92.471-61.873 84.501-12.9-8.337-6.993-36.612-6.004-85.617.261-12.942.195-21.833-19.586-26.424-54.009-12.535-100.81 12.122-81.692 15.682 26.963 5.028 24.377 58.695 18.088 83.89-10.951 43.87-52.114-34.752-69.274-73.896-4.128-9.419-5.39-17.006-20.165-17.006H63.502c-10.773 0-16.055 4.934-12.294 14.939 3.761 10.005 46.999 106.727 98.119 161.909 47.313 51.072 94.078 46.486 126.618 46.486z"/></svg>